HIERARCHY
ROOT Hips
{
	OFFSET 0.00000 0.00000 0.00000
	CHANNELS 6 Xposition Yposition Zposition Zrotation Yrotation Xrotation 
	JOINT LHipJoint
	{
		OFFSET 0 0 0
		CHANNELS 3 Zrotation Yrotation Xrotation
		JOINT LeftUpLeg
		{
			OFFSET 1.82298 -1.58346 0.87084
			CHANNELS 3 Zrotation Yrotation Xrotation
			JOINT LeftLeg
			{
				OFFSET 2.43790 -6.69809 0.00000
				CHANNELS 3 Zrotation Yrotation Xrotation
				JOINT LeftFoot
				{
					OFFSET 2.59288 -7.12389 0.00000
					CHANNELS 3 Zrotation Yrotation Xrotation
					JOINT LeftToeBase
					{
						OFFSET 0.14552 -0.39981 2.13160
						CHANNELS 3 Zrotation Yrotation Xrotation
						End Site
						{
							OFFSET 0.00000 -0.00000 1.09427
						}
					}
				}
			}
		}
	}
	JOINT RHipJoint
	{
		OFFSET 0 0 0
		CHANNELS 3 Zrotation Yrotation Xrotation
		JOINT RightUpLeg
		{
			OFFSET -1.77229 -1.58346 0.87084
			CHANNELS 3 Zrotation Yrotation Xrotation
			JOINT RightLeg
			{
				OFFSET -2.50703 -6.88801 0.00000
				CHANNELS 3 Zrotation Yrotation Xrotation
				JOINT RightFoot
				{
					OFFSET -2.61620 -7.18796 0.00000
					CHANNELS 3 Zrotation Yrotation Xrotation
					JOINT RightToeBase
					{
						OFFSET -0.15190 -0.41735 2.15974
						CHANNELS 3 Zrotation Yrotation Xrotation
						End Site
						{
							OFFSET -0.00000 -0.00000 1.10919
						}
					}
				}
			}
		}
	}
	JOINT LowerBack
	{
		OFFSET 0 0 0
		CHANNELS 3 Zrotation Yrotation Xrotation
		JOINT Spine
		{
			OFFSET -0.03602 2.12423 -0.30249
			CHANNELS 3 Zrotation Yrotation Xrotation
			JOINT Spine1
			{
				OFFSET 0.02717 2.10043 0.12912
				CHANNELS 3 Zrotation Yrotation Xrotation
				JOINT Neck
				{
					OFFSET 0 0 0
					CHANNELS 3 Zrotation Yrotation Xrotation
					JOINT Neck1
					{
						OFFSET -0.06371 1.88656 0.11602
						CHANNELS 3 Zrotation Yrotation Xrotation
						JOINT Head
						{
							OFFSET 0.08208 1.87759 -0.11505
							CHANNELS 3 Zrotation Yrotation Xrotation
							End Site
							{
								OFFSET 0.03382 1.93090 -0.05483
							}
						}
					}
				}
				JOINT LeftShoulder
				{
					OFFSET 0 0 0
					CHANNELS 3 Zrotation Yrotation Xrotation
					JOINT LeftArm
					{
						OFFSET 3.30903 1.40357 0.20156
						CHANNELS 3 Zrotation Yrotation Xrotation
						JOINT LeftForeArm
						{
							OFFSET 5.43301 -0.00000 0.00000
							CHANNELS 3 Zrotation Yrotation Xrotation
							JOINT LeftHand
							{
								OFFSET 3.15936 -0.00000 0.00000
								CHANNELS 3 Zrotation Yrotation Xrotation
								JOINT LeftFingerBase
								{
									OFFSET 0 0 0
									CHANNELS 3 Zrotation Yrotation Xrotation
									JOINT LeftHandIndex1
									{
										OFFSET 0.71283 -0.00000 0.00000
										CHANNELS 3 Zrotation Yrotation Xrotation
										End Site
										{
											OFFSET 0.57470 -0.00000 0.00000
										}
									}
								}
								JOINT LThumb
								{
									OFFSET 0 0 0
									CHANNELS 3 Zrotation Yrotation Xrotation
									End Site
									{
										OFFSET 0.58347 -0.00000 0.58347
									}
								}
							}
						}
					}
				}
				JOINT RightShoulder
				{
					OFFSET 0 0 0
					CHANNELS 3 Zrotation Yrotation Xrotation
					JOINT RightArm
					{
						OFFSET -3.12947 1.60037 -0.00464
						CHANNELS 3 Zrotation Yrotation Xrotation
						JOINT RightForeArm
						{
							OFFSET -5.34194 -0.00000 0.00000
							CHANNELS 3 Zrotation Yrotation Xrotation
							JOINT RightHand
							{
								OFFSET -3.19351 -0.00000 0.00000
								CHANNELS 3 Zrotation Yrotation Xrotation
								JOINT RightFingerBase
								{
									OFFSET 0 0 0
									CHANNELS 3 Zrotation Yrotation Xrotation
									JOINT RightHandIndex1
									{
										OFFSET -0.74386 -0.00000 0.00000
										CHANNELS 3 Zrotation Yrotation Xrotation
										End Site
										{
											OFFSET -0.59972 -0.00000 0.00000
										}
									}
								}
								JOINT RThumb
								{
									OFFSET 0 0 0
									CHANNELS 3 Zrotation Yrotation Xrotation
									End Site
									{
										OFFSET -0.60888 -0.00000 0.60888
									}
								}
							}
						}
					}
				}
			}
		}
	}
}
MOTION
Frames: 14
Frame Time: .0083333
2.8853 13.5459 -24.4369 -177.0430 31.3335 179.2340 0.0000 0.0000 0.0000 -4.7086 15.5477 -38.7187 19.1338 19.9820 87.4666 4.5144 8.2051 -43.4292 0.4082 -4.1014 -11.3622 0.0000 0.0000 0.0000 -0.6599 -17.0798 -56.6439 -11.9032 -18.3494 65.6818 -0.5411 12.9583 -14.9013 -5.6115 14.0410 -43.4021 -4.0231 -0.3165 17.5367 4.2891 -0.6475 -0.5684 7.2089 0.1190 -10.4212 -15.5483 -15.5981 5.9676 15.3778 -21.8354 -0.3377 6.3143 -11.0831 2.3511 -0.0000 0.0000 0.0000 -76.7713 16.0009 73.4208 127.5246 -53.9464 -91.8365 -0.0000 0.0000 -86.3434 -33.6365 27.2907 -16.9644 -7.1250 0.0000 -0.0000 -58.6392 48.4339 -7.3983 -0.0000 0.0000 0.0000 57.1416 25.2146 -4.4047 -96.1931 59.8546 -65.3607 0.0000 0.0000 42.6258 -55.2767 -41.3788 43.6462 7.1250 -0.0000 -0.0000 -71.3739 -81.7300 63.2836
2.9195 13.5087 -24.4388 -177.0220 31.2250 179.5910 0.0000 0.0000 0.0000 -4.4893 15.6246 -39.2819 19.2907 19.9879 87.9258 4.5725 7.8857 -43.5352 0.4240 -4.1790 -11.5809 0.0000 0.0000 0.0000 -0.5402 -17.3387 -57.4470 -12.1405 -18.4494 66.4336 -0.5619 13.2604 -15.2082 -5.5859 14.0147 -43.2963 -3.8854 -0.3915 17.4582 4.2638 -0.7228 -0.6494 7.1193 0.0763 -10.4571 -15.5650 -15.5160 6.0852 15.6033 -21.7179 -0.7058 6.4193 -11.0339 2.2347 0.0000 -0.0000 0.0000 -77.0126 15.9915 73.2206 127.5909 -53.9221 -91.8902 -0.0000 0.0000 -86.5637 -33.2132 29.2579 -17.7438 -7.1250 0.0000 -0.0000 -60.2705 49.8257 -10.6720 0.0000 -0.0000 0.0000 57.3734 25.5514 -5.1254 -96.8314 59.8229 -65.9127 0.0000 0.0000 41.9050 -55.6242 -41.5950 44.1400 7.1250 -0.0000 -0.0000 -74.2641 -81.8324 66.1764
2.9518 13.4742 -24.4399 -177.1050 31.1462 179.8730 0.0000 0.0000 0.0000 -4.3819 15.7866 -39.8082 19.4260 19.9921 88.3216 4.6263 7.5858 -43.6336 0.4470 -4.2896 -11.8928 0.0000 0.0000 0.0000 -0.4488 -17.6998 -58.2440 -12.3437 -18.5322 67.0741 -0.6033 13.3810 -15.6247 -5.6445 14.0747 -43.5377 -3.9244 -0.4809 17.3944 4.2244 -0.8576 -0.7090 7.1324 0.0123 -10.4669 -15.3869 -15.4640 6.0272 15.6395 -21.6149 -0.8893 6.4223 -10.9821 2.1594 0.0000 0.0000 0.0000 -77.1692 15.9966 72.8606 127.8125 -53.8405 -92.0692 -0.0000 0.0000 -86.5577 -32.6052 33.1280 -19.2685 -7.1250 0.0000 -0.0000 -63.8912 52.3741 -17.2952 0.0000 0.0000 0.0000 57.7061 25.9811 -5.6666 -97.1081 59.8082 -66.1519 0.0000 0.0000 41.2760 -56.0144 -41.8371 44.6955 7.1250 -0.0000 -0.0000 -77.5776 -81.9242 69.4958
2.9832 13.4443 -24.4448 -177.0600 31.1013 180.0740 0.0000 0.0000 0.0000 -4.1067 16.0590 -40.1188 19.5397 19.9949 88.6542 4.6800 7.2466 -43.7169 0.4657 -4.3773 -12.1405 0.0000 0.0000 0.0000 -0.2721 -18.0286 -58.7831 -12.5145 -18.5998 67.6106 -0.6449 13.4966 -16.0315 -5.6855 14.1165 -43.7060 -3.8414 -0.5501 17.3887 4.2035 -0.9355 -0.7298 7.0809 -0.0298 -10.4764 -15.3403 -15.4249 6.0944 15.7785 -21.5581 -1.0225 6.4740 -10.9587 2.1126 -0.0000 -0.0000 0.0000 -77.2275 16.0560 72.9339 127.7177 -53.8755 -91.9926 -0.0000 0.0000 -86.0008 -32.8122 33.5391 -19.6075 -7.1250 0.0000 -0.0000 -64.4874 52.5806 -18.0176 -0.0000 -0.0000 0.0000 57.9084 26.2518 -6.1942 -97.0295 59.8125 -66.0838 0.0000 0.0000 40.6954 -55.2085 -41.4686 43.6243 7.1250 -0.0000 -0.0000 -71.4426 -81.8041 63.4250
3.0118 13.4185 -24.4466 -176.9430 31.0694 180.3130 0.0000 0.0000 0.0000 -3.7786 16.3591 -40.4550 19.6442 19.9970 88.9596 4.7360 6.8600 -43.7931 0.4918 -4.4965 -12.4778 0.0000 0.0000 0.0000 0.0020 -18.3528 -59.3044 -12.6575 -18.6550 68.0583 -0.6927 13.6021 -16.4792 -5.7377 14.1693 -43.9198 -3.7229 -0.6244 17.3370 4.1885 -1.0103 -0.7207 7.0109 -0.0747 -10.4271 -15.2418 -15.4155 6.1373 15.8934 -21.5393 -1.0794 6.5030 -10.9523 2.0895 0.0000 0.0000 0.0000 -77.1177 16.0431 73.1173 127.5534 -53.9358 -91.8599 -0.0000 0.0000 -85.3342 -34.1028 34.9840 -21.2176 -7.1250 0.0000 -0.0000 -67.0178 53.1674 -20.6435 0.0000 0.0000 0.0000 58.1014 26.5407 -6.5929 -96.5495 59.8373 -65.6690 0.0000 0.0000 40.3913 -54.6007 -40.9173 42.6653 7.1250 -0.0000 -0.0000 -65.7868 -81.4462 57.6766
3.0396 13.3959 -24.4518 -176.9800 31.1036 180.3510 0.0000 0.0000 0.0000 -3.5916 16.7185 -40.5531 19.7204 19.9981 89.1824 4.7878 6.5603 -43.8899 0.5099 -4.5774 -12.7070 0.0000 0.0000 0.0000 0.1047 -18.6832 -59.6744 -12.7868 -18.7038 68.4620 -0.7384 13.7753 -16.9241 -5.7850 14.2167 -44.1126 -3.7745 -0.6367 17.3568 4.1478 -1.0436 -0.6955 7.0034 -0.0912 -10.4050 -15.1990 -15.4188 6.2199 15.9675 -21.5527 -1.0396 6.5232 -10.9624 2.0946 0.0000 0.0000 0.0000 -76.9814 16.0865 73.4055 127.3105 -54.0242 -91.6634 -0.0000 0.0000 -84.7427 -34.4237 33.4890 -20.7139 -7.1250 0.0000 -0.0000 -65.5366 52.2432 -17.9172 0.0000 0.0000 0.0000 58.1664 26.7007 -6.9078 -95.9331 59.8666 -65.1359 0.0000 0.0000 40.2227 -55.0920 -41.2775 43.3919 7.1250 -0.0000 -0.0000 -69.9283 -81.6781 61.8452
3.0650 13.3762 -24.4538 -176.8320 31.1119 180.4750 0.0000 0.0000 0.0000 -3.2213 17.0336 -40.6930 19.7937 19.9990 89.3968 4.8225 6.2381 -43.9075 0.5254 -4.6450 -12.8989 0.0000 0.0000 0.0000 0.3731 -18.9607 -59.9744 -12.8999 -18.7457 68.8143 -0.7925 13.8223 -17.3841 -5.8410 14.2725 -44.3404 -3.7704 -0.6969 17.4064 4.1822 -1.1171 -0.6555 7.0589 -0.1258 -10.3769 -15.0893 -15.4031 6.2309 15.9788 -21.5291 -0.9620 6.5136 -10.9503 2.1020 0.0000 -0.0000 0.0000 -76.8438 16.1198 73.5960 127.0477 -54.1190 -91.4506 -0.0000 0.0000 -84.5013 -34.9686 33.5867 -21.1516 -7.1250 0.0000 -0.0000 -66.0132 52.1973 -18.0870 0.0000 -0.0000 0.0000 58.1511 26.8542 -7.0101 -95.1983 59.8976 -64.5003 0.0000 0.0000 40.0995 -55.0461 -41.4217 43.4249 7.1250 -0.0000 -0.0000 -70.3603 -81.7901 62.3722
3.0903 13.3563 -24.4550 -176.7590 31.1094 180.5890 0.0000 0.0000 0.0000 -2.9421 17.3511 -40.8720 19.8623 19.9995 89.5973 4.8592 5.8958 -43.9281 0.5454 -4.7312 -13.1436 0.0000 0.0000 0.0000 0.5441 -19.1662 -60.2925 -13.0187 -18.7889 69.1837 -0.8476 13.8346 -17.8314 -5.9101 14.3407 -44.6199 -3.7513 -0.6626 17.4080 4.1932 -1.0655 -0.6532 7.0468 -0.1013 -10.3831 -15.1359 -15.4808 6.3578 16.0480 -21.6572 -0.8965 6.5336 -11.0190 2.1340 -0.0000 0.0000 0.0000 -76.5973 16.0416 74.0450 126.7398 -54.2287 -91.2009 -0.0000 0.0000 -84.7524 -33.4031 31.6928 -19.1089 -7.1250 0.0000 -0.0000 -62.8928 51.3480 -14.7751 -0.0000 0.0000 0.0000 57.9224 26.7747 -7.2229 -94.3105 59.9297 -63.7321 0.0000 0.0000 39.9267 -54.4444 -40.8885 42.4841 7.1250 -0.0000 -0.0000 -64.8661 -81.4328 56.7953
3.1141 13.3442 -24.4616 -176.9160 31.0799 180.5160 0.0000 0.0000 0.0000 -2.9376 17.5649 -40.8650 19.8987 19.9998 89.7039 4.8854 5.7171 -43.9698 0.5635 -4.8081 -13.3619 0.0000 0.0000 0.0000 0.4794 -19.5086 -60.5258 -13.1261 -18.8272 69.5168 -0.8924 13.9104 -18.2100 -5.9731 14.4023 -44.8739 -3.9498 -0.6123 17.4275 4.1676 -1.0447 -0.6175 7.1281 -0.0840 -10.3547 -15.1910 -15.5497 6.4045 16.0876 -21.7679 -0.8010 6.5395 -11.0753 2.1823 -0.0000 0.0000 0.0000 -76.3971 16.0009 74.3500 126.5331 -54.3015 -91.0331 -0.0000 0.0000 -85.3109 -32.1484 30.6390 -17.7597 -7.1250 0.0000 -0.0000 -60.9503 50.9117 -13.0654 -0.0000 0.0000 0.0000 57.5240 26.5707 -7.2402 -93.5257 59.9530 -63.0528 0.0000 0.0000 39.5884 -54.4522 -41.0304 42.5736 7.1250 -0.0000 -0.0000 -65.5001 -81.5451 57.5039
3.1373 13.3284 -24.4609 -176.8980 31.0343 180.5850 0.0000 0.0000 0.0000 -2.7629 17.7319 -41.0238 19.9545 20.0000 89.8669 4.8863 5.5985 -43.9280 0.5851 -4.8976 -13.6167 0.0000 0.0000 0.0000 0.5605 -19.6663 -60.7818 -13.2326 -18.8645 69.8465 -0.9257 13.8725 -18.4574 -6.0026 14.4309 -44.9923 -4.0749 -0.5922 17.4702 4.2067 -1.0393 -0.6011 7.2452 -0.0726 -10.3590 -15.1728 -15.6022 6.3878 16.0734 -21.8396 -0.7495 6.5216 -11.1097 2.2075 -0.0000 -0.0000 0.0000 -76.2468 15.9361 74.4420 126.3713 -54.3581 -90.9017 -0.0000 0.0000 -86.0824 -32.4848 31.6047 -18.4521 -7.1250 0.0000 -0.0000 -62.1779 51.4620 -14.6711 -0.0000 -0.0000 0.0000 57.2157 26.5110 -7.1313 -92.7307 59.9718 -62.3646 0.0000 0.0000 39.3177 -54.6420 -41.0609 42.7913 7.1250 -0.0000 -0.0000 -66.6124 -81.5558 58.5662
3.1534 13.3183 -24.4608 -176.9180 30.9241 180.6890 0.0000 0.0000 0.0000 -2.7168 17.7581 -41.2259 19.9980 20.0000 89.9940 4.8822 5.5593 -43.8955 0.6002 -4.9595 -13.7931 0.0000 0.0000 0.0000 0.5924 -19.8291 -61.0360 -13.3241 -18.8961 70.1290 -0.9630 13.7422 -18.7072 -6.0384 14.4655 -45.1358 -4.2892 -0.6471 17.5600 4.2733 -1.1514 -0.6303 7.4803 -0.1080 -10.4208 -15.1382 -15.6429 6.2606 15.9475 -21.8854 -0.6397 6.4605 -11.1256 2.2480 0.0000 0.0000 0.0000 -76.2463 16.0440 74.2598 126.2932 -54.3853 -90.8382 -0.0000 0.0000 -86.6984 -31.7075 32.5204 -18.3727 -7.1250 0.0000 -0.0000 -62.6095 52.1749 -16.2569 0.0000 0.0000 0.0000 57.0036 26.4742 -6.7194 -92.0857 59.9836 -61.8062 0.0000 0.0000 39.1718 -54.7527 -41.0794 42.9189 7.1250 -0.0000 -0.0000 -67.2666 -81.5613 59.1919
3.1726 13.3089 -24.4628 -176.9060 30.7865 180.7340 0.0000 0.0000 0.0000 -2.6320 17.7659 -41.3545 20.0482 19.9999 90.1408 4.8702 5.5872 -43.8552 0.6091 -4.9953 -13.8951 0.0000 0.0000 0.0000 0.6275 -20.0186 -61.1650 -13.4040 -18.9232 70.3757 -1.0033 13.6519 -18.9904 -6.0810 14.5064 -45.3060 -4.3796 -0.6503 17.6047 4.3051 -1.1699 -0.5949 7.5745 -0.1113 -10.4015 -15.1697 -15.6686 6.2604 16.0721 -21.9176 -0.7434 6.5000 -11.1436 2.2408 0.0000 0.0000 0.0000 -76.1242 16.0818 74.2809 126.2844 -54.3884 -90.8310 -0.0000 0.0000 -87.0925 -30.6544 32.0069 -17.4392 -7.1250 0.0000 -0.0000 -61.3252 52.0541 -15.4096 0.0000 0.0000 0.0000 56.6444 26.2658 -6.5331 -91.7516 59.9884 -61.5169 0.0000 0.0000 38.9756 -54.8423 -40.8688 42.8929 7.1250 -0.0000 -0.0000 -66.8195 -81.3912 58.5980
3.1943 13.2965 -24.4622 -176.9700 30.6246 180.7030 0.0000 0.0000 0.0000 -2.6252 17.7162 -41.4361 20.0991 19.9998 90.2898 4.8605 5.6324 -43.8314 0.6159 -5.0227 -13.9732 0.0000 0.0000 0.0000 0.5516 -20.1853 -61.2437 -13.4787 -18.9482 70.6060 -1.0368 13.5118 -19.2063 -6.1192 14.5429 -45.4582 -4.4752 -0.5738 17.7082 4.2965 -1.0916 -0.5856 7.6055 -0.0662 -10.4615 -15.1665 -15.7210 6.4380 16.2129 -21.9840 -1.0808 6.5630 -11.1888 2.1401 -0.0000 0.0000 0.0000 -75.8850 16.1057 74.3039 126.5154 -54.3077 -91.0188 -0.0000 0.0000 -87.1591 -31.0885 33.5263 -18.4193 -7.1250 0.0000 -0.0000 -63.2597 52.9061 -17.9838 -0.0000 0.0000 0.0000 56.1963 25.9020 -6.6385 -91.3754 59.9929 -61.1911 0.0000 0.0000 38.8495 -54.8667 -41.0795 43.0398 7.1250 -0.0000 -0.0000 -67.8582 -81.5516 59.7439
3.2077 13.2882 -24.4596 -176.8800 30.4656 180.8490 0.0000 0.0000 0.0000 -2.5157 17.6530 -41.7209 20.1630 19.9994 90.4766 4.8477 5.6027 -43.7657 0.5972 -4.9471 -13.7576 0.0000 0.0000 0.0000 0.6241 -20.2081 -61.3532 -13.5321 -18.9659 70.7702 -1.0787 13.2405 -19.4515 -6.1765 14.5972 -45.6859 -4.4772 -0.5913 17.7692 4.3382 -1.1099 -0.5882 7.6618 -0.0706 -10.4956 -15.1405 -15.7348 6.4720 16.2872 -21.9886 -1.3068 6.5933 -11.1959 2.0751 0.0000 -0.0000 0.0000 -75.8058 16.2608 74.1408 126.7119 -54.2385 -91.1783 -0.0000 0.0000 -86.9250 -30.8141 33.2140 -18.0931 -7.1250 0.0000 -0.0000 -62.7235 52.7699 -17.4447 0.0000 -0.0000 0.0000 55.9077 25.6964 -6.5207 -91.1465 59.9950 -60.9929 0.0000 0.0000 39.0568 -55.3670 -41.1627 43.6196 7.1250 -0.0000 -0.0000 -70.8326 -81.5612 62.5923
